M48
; DRILL file {KiCad (6.0.0-rc1-255-gd64ae52042)} date Thu Dec 16 13:02:59 2021
; FORMAT={-:-/ absolute / inch / decimal}
; #@! TF.CreationDate,2021-12-16T13:02:59+13:00
; #@! TF.GenerationSoftware,Kicad,Pcbnew,(6.0.0-rc1-255-gd64ae52042)
; #@! TF.FileFunction,Plated,1,4,PTH
FMAT,2
INCH
; #@! TA.AperFunction,Plated,PTH,ViaDrill
T1C0.0118
; #@! TA.AperFunction,Plated,PTH,ViaDrill
T2C0.0197
; #@! TA.AperFunction,Plated,PTH,ComponentDrill
T3C0.0236
; #@! TA.AperFunction,Plated,PTH,ComponentDrill
T4C0.0335
%
G90
G05
T1
X3.4526Y-2.2274
X3.4526Y-2.3574
X3.4526Y-2.5535
X3.4526Y-2.8142
X3.4529Y-2.7147
X3.4529Y-2.8893
X3.4529Y-2.9789
X3.4529Y-3.0639
X3.4529Y-3.1535
X3.4529Y-3.2385
X3.4529Y-3.3281
X3.4529Y-3.4131
X3.4529Y-3.5027
X3.4529Y-3.5877
X3.4529Y-3.6773
X3.4529Y-3.7623
X3.4529Y-3.8519
X3.4529Y-3.9369
X3.4529Y-4.0265
X3.4529Y-4.1115
X3.4529Y-4.2011
X3.4529Y-4.404
X3.4529Y-4.462
X3.4532Y-2.1645
X3.4532Y-2.4287
X3.4533Y-2.6337
X3.4769Y-4.2295
X3.5058Y-4.462
X3.5215Y-2.1645
X3.5934Y-3.775
X3.6429Y-2.1641
X3.6524Y-2.9482
X3.6524Y-3.1845
X3.6524Y-3.4207
X3.6524Y-3.8931
X3.6572Y-4.462
X3.6613Y-2.4969
X3.6613Y-2.5252
X3.6613Y-2.5535
X3.6639Y-3.6569
X3.7006Y-2.6024
X3.7006Y-2.6421
X3.7082Y-2.7274
X3.7115Y-2.3577
X3.7115Y-2.8301
X3.7115Y-3.0663
X3.7115Y-3.3026
X3.7115Y-3.5388
X3.7115Y-4.0112
X3.7191Y-2.1641
X3.7252Y-4.1774
X3.7252Y-4.462
X3.7328Y-2.3004
X3.7338Y-4.1214
X3.7619Y-2.5535
X3.7632Y-2.6814
X3.7706Y-2.2396
X3.7706Y-2.4758
X3.7706Y-3.4207
X3.7706Y-3.6569
X3.7861Y-4.462
X3.7952Y-2.1641
X3.8296Y-2.3577
X3.8296Y-3.5388
X3.8296Y-4.0112
X3.8296Y-4.2475
X3.8669Y-4.1774
X3.8711Y-4.462
X3.8714Y-2.1641
X3.8732Y-2.7648
X3.8752Y-4.2104
X3.8887Y-2.2396
X3.8887Y-2.4758
X3.8887Y-3.4207
X3.8887Y-3.6569
X3.9012Y-2.6234
X3.9046Y-4.2104
X3.9132Y-2.7974
X3.9388Y-3.9163
X3.9414Y-4.009
X3.9476Y-2.1641
X3.9477Y-2.3577
X3.9477Y-3.0663
X3.9477Y-3.3026
X3.9592Y-2.2001
X3.9732Y-2.7974
X4.0058Y-2.5252
X4.0062Y-2.5584
X4.0238Y-2.1641
X4.0332Y-2.7974
X4.0373Y-2.5252
X4.038Y-2.5591
X4.0458Y-4.462
X4.0622Y-3.5532
X4.0658Y-2.3577
X4.0932Y-2.7974
X4.0999Y-2.1641
X4.1019Y-3.0104
X4.1019Y-3.097
X4.1019Y-3.1836
X4.1019Y-3.227
X4.1023Y-3.0534
X4.1024Y-3.1398
X4.1166Y-3.8104
X4.1166Y-4.0053
X4.1256Y-3.5532
X4.1289Y-3.0534
X4.1291Y-3.1398
X4.1354Y-4.462
X4.1369Y-2.4451
X4.1369Y-3.4474
X4.137Y-2.4166
X4.146Y-2.568
X4.1501Y-2.5367
X4.1666Y-4.0053
X4.1728Y-2.1624
X4.1839Y-4.2475
X4.1874Y-3.5532
X4.2032Y-2.5444
X4.2032Y-2.8042
X4.2166Y-4.0053
X4.2204Y-4.462
X4.2405Y-2.2001
X4.2405Y-2.2574
X4.2405Y-2.5444
X4.2405Y-2.7278
X4.2512Y-3.5374
X4.2523Y-2.1641
X4.2666Y-4.0074
X4.2666Y-4.1482
X4.2756Y-3.4474
X4.2832Y-2.4952
X4.2952Y-2.4166
X4.3021Y-3.775
X4.3021Y-4.2475
X4.3078Y-2.8174
X4.3082Y-2.9824
X4.3082Y-3.9758
X4.31Y-4.462
X4.3126Y-3.5532
X4.3289Y-2.1641
X4.3325Y-2.5773
X4.3464Y-2.4897
X4.3611Y-2.2396
X4.3611Y-3.1845
X4.3611Y-3.8931
X4.3789Y-2.8478
X4.395Y-4.462
X4.4056Y-2.1645
X4.4535Y-3.8758
X4.4535Y-3.9758
X4.4544Y-3.9242
X4.4662Y-4.2204
X4.4761Y-2.3951
X4.4764Y-2.1636
X4.4764Y-2.2379
X4.4764Y-2.3145
X4.4792Y-2.712
X4.4846Y-4.462
X4.4962Y-2.5225
X4.4962Y-2.5497
X4.4962Y-2.5753
X4.5383Y-4.2475
X4.5652Y-4.3534
X4.5815Y-3.6258
X4.5815Y-3.6758
X4.5815Y-3.7258
X4.5815Y-3.7758
X4.5973Y-3.8931
X4.5973Y-4.1293
X4.6245Y-2.4393
X4.6245Y-2.5387
X4.6245Y-3.0393
X4.6245Y-3.0893
X4.6245Y-3.1393
X4.6245Y-3.1893
X4.6266Y-2.6414
X4.6266Y-2.9874
X4.6342Y-2.8844
X4.6439Y-2.8127
X4.6544Y-2.4393
X4.6544Y-3.1393
X4.6592Y-4.462
X4.6662Y-4.1894
X4.6662Y-4.2204
X4.6743Y-2.9865
X4.6932Y-2.4321
X4.7154Y-2.4758
X4.7154Y-3.8931
X4.7154Y-4.1293
X4.7344Y-2.662
X4.7344Y-2.7346
X4.7344Y-2.8074
X4.7442Y-4.462
X4.7545Y-2.432
X4.7662Y-4.3258
X4.7662Y-4.3534
X4.7745Y-3.0663
X4.7745Y-3.3026
X4.7745Y-3.775
X4.7745Y-4.2475
X4.7901Y-2.6105
X4.7901Y-2.8538
X4.8202Y-2.4316
X4.8206Y-3.6258
X4.8206Y-3.6758
X4.8206Y-3.7272
X4.8206Y-3.7772
X4.8206Y-3.8258
X4.8206Y-3.8758
X4.8206Y-3.9258
X4.8206Y-3.9758
X4.8335Y-2.4758
X4.8335Y-3.1845
X4.8335Y-4.1293
X4.8338Y-4.462
X4.8624Y-2.6105
X4.8624Y-2.8524
X4.8859Y-2.4316
X4.8926Y-4.2475
X4.8942Y-3.1281
X4.9188Y-4.462
X4.9346Y-2.6105
X4.9346Y-2.8538
X4.9515Y-2.4316
X4.9517Y-2.4758
X4.9517Y-3.8931
X4.9517Y-4.1293
X4.9608Y-3.1281
X4.9882Y-2.6624
X4.9882Y-2.7346
X5.0054Y-3.9245
X5.0082Y-2.7775
X5.0084Y-4.462
X5.0107Y-2.5939
X5.0107Y-4.2475
X5.0172Y-2.4316
X5.0203Y-3.6304
X5.0203Y-3.7288
X5.0372Y-3.0754
X5.0698Y-2.4758
X5.0698Y-3.4207
X5.0698Y-4.1293
X5.0832Y-2.4316
X5.0832Y-3.097
X5.0934Y-4.462
X5.1132Y-2.7828
X5.1244Y-4.2561
X5.1244Y-4.2861
X5.1423Y-3.1389
X5.1491Y-2.4393
X5.1531Y-3.6274
X5.1539Y-3.7264
X5.1559Y-3.8757
X5.1567Y-2.8396
X5.1577Y-3.9573
X5.1578Y-3.9288
X5.1582Y-2.7899
X5.179Y-2.4393
X5.179Y-2.5387
X5.179Y-2.5893
X5.179Y-2.6393
X5.179Y-3.0393
X5.1806Y-2.8893
X5.183Y-4.462
X5.1879Y-3.4207
X5.1879Y-4.1293
X5.2622Y-4.257
X5.2622Y-4.287
X5.268Y-4.462
X5.2723Y-3.8257
X5.3013Y-3.8257
X5.3197Y-2.1636
X5.3197Y-2.4003
X5.3197Y-2.944
X5.3201Y-2.2327
X5.3201Y-2.3145
X5.3473Y-2.5908
X5.3576Y-4.462
X5.3593Y-2.5081
X5.3631Y-3.5757
X5.3631Y-3.7257
X5.3631Y-3.7757
X5.3631Y-3.8257
X5.3631Y-3.8757
X5.3631Y-3.9257
X5.365Y-2.3577
X5.3792Y-2.1636
X5.4012Y-4.2594
X5.4241Y-2.2396
X5.4426Y-4.462
X5.4454Y-2.3577
X5.464Y-2.1636
X5.4832Y-3.0663
X5.4832Y-3.3026
X5.4832Y-3.5388
X5.4832Y-4.2475
X5.4869Y-2.7216
X5.4869Y-2.7807
X5.4869Y-2.8393
X5.4869Y-2.8974
X5.5094Y-2.5905
X5.5098Y-2.5623
X5.5322Y-4.462
X5.5422Y-3.1845
X5.5494Y-2.1636
X5.5524Y-2.6425
X5.5524Y-2.7877
X5.5714Y-2.5768
X5.574Y-3.5947
X5.6012Y-3.5947
X5.6013Y-2.8301
X5.6013Y-3.3026
X5.6013Y-4.2475
X5.6092Y-3.9416
X5.6172Y-4.462
X5.6225Y-2.5366
X5.6343Y-2.1636
X5.6422Y-2.2396
X5.6461Y-3.4311
X5.6603Y-2.712
X5.6603Y-3.1845
X5.6603Y-4.1293
X5.6816Y-2.3004
X5.6914Y-2.2081
X5.6924Y-2.5775
X5.6942Y-3.7927
X5.6942Y-3.9199
X5.7068Y-4.462
X5.7194Y-4.2475
X5.7197Y-2.1636
X5.7205Y-2.2081
X5.7224Y-2.4581
X5.7224Y-2.5081
X5.7262Y-2.9852
X5.7418Y-3.5877
X5.7784Y-4.1293
X5.7918Y-4.462
X5.8005Y-2.6485
X5.8045Y-2.1636
X5.8079Y-2.7684
X5.8375Y-3.5388
X5.8375Y-4.2475
X5.8814Y-4.462
X5.8889Y-3.0194
X5.8889Y-3.1365
X5.8889Y-2.3321
X5.8893Y-2.9607
X5.8893Y-3.0725
X5.8893Y-2.2764
X5.8896Y-2.902
X5.89Y-2.221
X5.89Y-2.8432
X5.8904Y-2.7845
X5.8907Y-2.1649
X5.8907Y-2.3699
X5.8907Y-2.4432
X5.8907Y-2.7257
X5.891Y-2.4993
X5.891Y-2.5482
X5.8911Y-2.667
X5.8915Y-2.6083
X5.9378Y-2.857
X5.9378Y-2.9143
X5.9378Y-2.9733
X5.9378Y-3.0323
X5.9382Y-3.0908
X5.9487Y-2.2764
X5.9494Y-2.1653
X5.9494Y-2.221
X5.9556Y-3.137
X5.9556Y-3.5388
X5.9556Y-3.775
X5.9556Y-4.2475
X5.9664Y-4.462
X5.9914Y-2.6657
X5.9933Y-3.0911
X5.9935Y-2.4491
X5.9935Y-2.5216
X5.9935Y-2.3724
X6.0054Y-2.2524
X6.0054Y-2.3074
X6.0082Y-2.1657
X6.0146Y-4.1293
X6.0162Y-2.6657
X6.0247Y-3.1367
X6.041Y-2.6657
X6.0506Y-3.0911
X6.0514Y-2.8216
X6.056Y-4.462
X6.0669Y-2.166
X6.0737Y-2.5939
X6.094Y-3.1364
X6.1096Y-3.0911
X6.1256Y-2.1664
X6.1328Y-3.6569
X6.1328Y-3.8931
X6.1409Y-2.4491
X6.141Y-4.462
X6.1607Y-3.1368
X6.1652Y-2.4491
X6.1674Y-2.3724
X6.1686Y-3.0911
X6.1844Y-2.1668
X6.2132Y-2.5993
X6.2132Y-2.6279
X6.2133Y-2.9405
X6.2133Y-3.0135
X6.224Y-3.137
X6.2271Y-3.0908
X6.2306Y-4.462
X6.2431Y-2.1671
X6.2509Y-2.2396
X6.2509Y-4.3656
X6.2525Y-2.9893
X6.2632Y-2.5523
X6.2632Y-2.7761
X6.277Y-2.3468
X6.277Y-2.398
X6.2844Y-3.0908
X6.2888Y-3.1363
X6.2906Y-4.2784
X6.2912Y-4.1038
X6.3024Y-2.1834
X6.3099Y-2.5939
X6.3156Y-4.462
X6.3312Y-2.7925
X6.3429Y-3.1364
X6.3434Y-3.0908
X6.3624Y-2.1834
X6.369Y-2.4758
X6.369Y-2.712
X6.3906Y-4.2458
X6.3906Y-4.4204
X6.3957Y-2.398
X6.3957Y-2.4236
X6.3987Y-4.209
X6.3991Y-4.1503
X6.3994Y-4.0915
X6.3998Y-4.0328
X6.4002Y-3.974
X6.4005Y-3.9153
X6.4009Y-3.8566
X6.4013Y-3.7978
X6.4016Y-3.7391
X6.402Y-3.6803
X6.4024Y-3.0908
X6.4024Y-3.6216
X6.4027Y-3.5629
X6.4031Y-3.5041
X6.4035Y-3.137
X6.4035Y-3.1886
X6.4035Y-3.2303
X6.4052Y-4.462
X6.4193Y-2.1682
X6.428Y-2.5939
X6.4592Y-2.763
X6.4592Y-2.9303
X6.4608Y-3.1489
X6.4608Y-3.2079
X6.4637Y-3.5273
X6.4637Y-3.5846
X6.4637Y-3.6436
X6.4637Y-3.7026
X6.4641Y-3.761
X6.4641Y-3.8183
X6.4641Y-3.8773
X6.4641Y-3.9363
X6.4645Y-3.9948
X6.4645Y-4.0521
X6.4645Y-4.1111
X6.4648Y-4.2858
X6.4648Y-4.3448
X6.4648Y-4.4038
X6.4652Y-4.4623
X6.4781Y-2.1686
X6.5239Y-4.4627
X6.5368Y-2.169
X6.5461Y-2.3577
X6.5461Y-2.5939
X6.5827Y-4.4631
X6.5956Y-2.1693
X6.5982Y-2.6781
X6.5982Y-2.9852
X6.5982Y-3.0135
X6.6052Y-4.3656
X6.6414Y-4.4634
X6.6543Y-2.1697
X6.6643Y-3.775
X6.6906Y-2.3518
X6.7001Y-4.4638
X6.713Y-2.1701
X6.7233Y-4.3656
X6.7589Y-4.4642
X6.7718Y-2.1704
X6.7824Y-3.3026
X6.7824Y-3.5388
X6.7845Y-2.5798
X6.7845Y-2.6092
X6.8133Y-2.5798
X6.8133Y-2.6092
X6.8176Y-4.4645
X6.8305Y-2.1708
X6.8414Y-4.1293
X6.8414Y-4.3656
X6.8481Y-3.5467
X6.8764Y-4.4649
X6.8893Y-2.1712
X6.9098Y-3.202
X6.9101Y-3.1762
X6.9101Y-3.5467
X6.9178Y-2.513
X6.9178Y-2.5445
X6.9351Y-4.4653
X6.948Y-2.1715
X6.9482Y-3.202
X6.9482Y-3.2303
X6.9572Y-2.513
X6.9572Y-2.5445
X6.9595Y-2.9482
X6.9595Y-4.3656
X6.9852Y-3.5491
X6.9938Y-4.4656
X7.0067Y-2.1719
X7.013Y-3.5491
X7.0173Y-4.0003
X7.0173Y-4.0312
X7.0186Y-4.2475
X7.0526Y-4.466
X7.0596Y-2.9382
X7.0655Y-2.1723
X7.0776Y-3.1845
X7.0902Y-2.5134
X7.0989Y-2.3004
X7.1113Y-4.4664
X7.1242Y-2.1726
X7.1367Y-2.5939
X7.1367Y-3.775
X7.1771Y-4.0312
X7.1771Y-4.0969
X7.1829Y-2.173
X7.1922Y-2.3694
X7.1958Y-2.712
X7.1958Y-3.8931
X7.1958Y-4.1293
X7.2485Y-2.9382
X7.2548Y-2.173
X7.2548Y-2.5939
X7.2548Y-2.8301
X7.2548Y-3.775
X7.2548Y-4.0112
X7.2699Y-4.4664
X7.3032Y-3.5694
X7.3032Y-3.5977
X7.3032Y-3.6261
X7.3032Y-3.7225
X7.3032Y-3.8495
X7.3252Y-4.4587
X7.3258Y-4.2592
X7.3258Y-4.4109
X7.3262Y-4.2004
X7.3266Y-4.1417
X7.327Y-4.0829
X7.3273Y-4.0242
X7.3277Y-3.9655
X7.3281Y-3.9067
X7.3286Y-3.7037
X7.3297Y-3.5275
X7.3301Y-3.4688
X7.3304Y-3.41
X7.3308Y-3.3513
X7.3312Y-2.1801
X7.3312Y-2.2391
X7.3312Y-3.2925
X7.3315Y-2.2976
X7.3315Y-2.3549
X7.3315Y-2.4139
X7.3315Y-2.4729
X7.3315Y-3.2338
X7.3319Y-2.5313
X7.3319Y-2.5886
X7.3319Y-2.6476
X7.3319Y-2.7066
X7.3319Y-3.1751
X7.3323Y-2.7651
X7.3323Y-2.8224
X7.3323Y-2.8814
X7.3323Y-2.9404
X7.3323Y-3.1163
X7.3326Y-2.9989
X7.3326Y-3.0576
X7.3348Y-3.5874
X7.3348Y-3.6261
T2
X5.8901Y-4.0509
X5.9361Y-4.0504
X5.9821Y-4.0499
X6.0281Y-4.0495
X6.2788Y-3.9124
X6.2792Y-3.9584
X6.2797Y-4.0044
X6.2802Y-4.0504
X6.5798Y-3.9146
X6.5799Y-3.8677
X6.6237Y-3.8677
X6.6237Y-3.9146
X6.6944Y-3.0716
X6.6944Y-3.1689
X6.6945Y-3.0247
X6.6945Y-3.122
X6.7382Y-3.0247
X6.7382Y-3.0716
X6.7382Y-3.122
X6.7382Y-3.1689
X6.7615Y-3.8013
X6.7616Y-3.7544
X6.7617Y-3.7076
X6.8053Y-3.8013
X6.8055Y-3.7076
X6.8055Y-3.7544
X6.8133Y-3.8829
X6.8133Y-3.9774
X6.8134Y-3.9286
X7.0315Y-3.2875
X7.0315Y-3.3363
X7.0315Y-3.3874
X7.0316Y-3.2406
X7.2423Y-3.3959
X7.2424Y-3.349
X7.2862Y-3.349
X7.2862Y-3.3959
T4
X3.5963Y-2.5358
X3.5963Y-2.7327
T3
G00X3.4763Y-2.4964
M15
G01X3.5038Y-2.4964
M16
G05
G00X3.4763Y-2.772
M15
G01X3.5038Y-2.772
M16
G05
T0
M30
